<svg width="50" height="50" viewBox="0 0 50 50" fill="none" xmlns="http://www.w3.org/2000/svg">
<path fill-rule="evenodd" clip-rule="evenodd" d="M50 25C50 33.2367 46.0163 40.5429 39.8714 45.0979C40.2305 43.443 40.2437 41.4154 39.8969 39.0767C39.7795 38.29 39.6244 37.4797 39.4326 36.6512C40.2459 36.4033 41.0255 36.1329 41.7652 35.841C46.5999 33.9318 49.2622 31.2604 49.2622 28.3185C49.2621 25.3767 46.5999 22.7052 41.7652 20.7971C41.0254 20.5054 40.2459 20.235 39.4317 19.9859L39.4317 19.9856C39.6246 19.157 39.7797 18.3469 39.8971 17.5602C40.66 12.4185 39.6785 8.77764 37.1305 7.30625C34.5825 5.83584 30.9387 6.80625 26.8682 10.0379C26.2458 10.5328 25.6213 11.0725 24.9999 11.6542C24.3786 11.0725 23.7541 10.5328 23.1306 10.0379C19.0602 6.80625 15.4163 5.83584 12.8684 7.30625C10.3204 8.77764 9.33876 12.4185 10.102 17.5604C10.2184 18.3471 10.3745 19.1573 10.5674 19.9858L10.5672 19.9859C9.75292 20.2339 8.97333 20.5053 8.23349 20.7971C3.39989 22.7052 0.73661 25.3767 0.73661 28.3185C0.73661 31.2603 3.39989 33.9318 8.23358 35.841C8.97343 36.1328 9.75194 36.4032 10.5662 36.6522L10.5662 36.6522C10.3745 37.4807 10.2183 38.2898 10.102 39.0765C9.75507 41.4143 9.76835 43.4418 10.1275 45.0969C3.98262 40.5418 0 33.2357 0 25C0 11.1929 11.1929 0 25 0C38.8071 0 50 11.1929 50 25ZM37.212 19.3848L37.212 19.3849C35.2059 18.9053 33.0387 18.5482 30.7705 18.3237L30.7704 18.3236C29.4418 16.4716 28.049 14.7727 26.6296 13.2746L26.6295 13.2746C27.1857 12.7583 27.7417 12.2787 28.2969 11.8379C29.9478 10.5277 31.5418 9.61445 32.907 9.19805C33.4866 9.02051 34.0192 8.93174 34.5009 8.93174C35.0651 8.93174 35.561 9.0542 35.9814 9.29707C36.762 9.74707 37.308 10.6267 37.6049 11.9104C37.9263 13.3012 37.9335 15.1379 37.6232 17.2226C37.5191 17.9235 37.3814 18.646 37.212 19.3848ZM21.7018 11.838C22.2568 12.2788 22.814 12.7584 23.3691 13.2758C21.9498 14.7737 20.5571 16.4716 19.2275 18.3235L19.2274 18.3237C16.9591 18.5482 14.7928 18.9053 12.7866 19.3849L12.7866 19.3849C12.6172 18.6461 12.4795 17.9236 12.3754 17.2227C12.0652 15.138 12.0724 13.3013 12.3937 11.9105C12.6907 10.6268 13.2376 9.74717 14.0172 9.29717C14.4386 9.0543 14.9335 8.93184 15.4977 8.93184C15.9794 8.93184 16.512 9.02061 17.0916 9.19815C18.4569 9.61446 20.0508 10.5277 21.7018 11.838ZM22.2551 18.1063L22.255 18.1063C23.1601 18.0644 24.0765 18.043 24.9999 18.043C25.9233 18.043 26.8395 18.0645 27.7435 18.1063C26.8466 16.9513 25.9283 15.8757 24.9987 14.8932C24.0703 15.8758 23.152 16.9513 22.2551 18.1063ZM17.5264 20.837L17.5265 20.837C17.0377 21.5991 16.5623 22.3807 16.1011 23.1807C15.6398 23.9807 15.2001 24.7837 14.7837 25.5878L14.7836 25.5879L14.7836 25.5879C14.2316 24.2349 13.7591 22.9013 13.3724 21.6064C14.6877 21.2931 16.0785 21.036 17.5264 20.837ZM15.9908 28.3185L15.9908 28.3186C16.6224 29.6461 17.3244 30.9807 18.0907 32.3072C18.856 33.6338 19.6611 34.9093 20.4948 36.1205L20.4949 36.1207C21.9612 36.237 23.4682 36.2962 24.9998 36.2962C26.5314 36.2962 28.0386 36.237 29.5049 36.1196L29.505 36.1196L29.5051 36.1194C30.3377 34.9082 31.1428 33.6327 31.9081 32.3072C32.6743 30.9808 33.3764 29.6462 34.008 28.3188L34.0079 28.3187C33.3763 26.9911 32.6742 25.6564 31.9079 24.3299C31.1427 23.0044 30.3375 21.7289 29.5049 20.5177L29.5049 20.5176C28.0386 20.4003 26.5314 20.3411 24.9998 20.3411C23.4682 20.3411 21.9611 20.4003 20.4948 20.5166C19.6612 21.7277 18.8561 23.0032 18.0908 24.3297C17.3245 25.6563 16.6225 26.9909 15.9908 28.3185ZM11.1562 22.2084C11.744 24.1859 12.5184 26.242 13.4582 28.3184C12.5183 30.3959 11.7439 32.451 11.1561 34.4285L11.1561 34.4288L11.1559 34.4288C10.4314 34.2063 9.73759 33.9634 9.07733 33.7033C7.11718 32.9288 5.52938 32.0053 4.48651 31.0308C3.52323 30.1318 3.03446 29.2196 3.03446 28.3186C3.03446 27.4176 3.52323 26.5053 4.48651 25.6064C5.52938 24.6319 7.11708 23.7085 9.07733 22.934C9.73749 22.6738 10.4314 22.4309 11.1559 22.2085L11.1562 22.2084ZM13.3725 35.0307L13.3724 35.0309C14.6877 35.3441 16.0785 35.6012 17.5264 35.8003L17.5268 35.8003L17.5266 35.8C17.0378 35.0378 16.5623 34.2562 16.1011 33.4562C15.6398 32.6562 15.2 31.8531 14.7837 31.049C14.2316 32.4021 13.7592 33.7357 13.3725 35.0307ZM24.9999 38.594C25.9233 38.594 26.8386 38.5736 27.7427 38.5318C26.8469 39.6858 25.9286 40.7613 24.999 41.7439L24.9989 41.7439C24.0703 40.7614 23.152 39.6858 22.2561 38.5318C23.1602 38.5736 24.0765 38.594 24.9999 38.594ZM26.6297 43.3632L26.6295 43.3634C27.1856 43.8787 27.7418 44.3583 28.2969 44.7991C29.9478 46.1104 31.5417 47.0226 32.907 47.4399C34.1673 47.8236 35.2019 47.7909 35.9815 47.3399C36.7621 46.8899 37.308 46.0104 37.605 44.7267C37.9265 43.3358 37.9336 41.4991 37.6232 39.4145C37.5191 38.7135 37.3813 37.991 37.213 37.2523C35.2069 37.7328 33.0386 38.0899 30.7703 38.3144C29.4417 40.1664 28.048 41.8653 26.6297 43.3632ZM19.2287 38.3144C20.5573 40.1664 21.95 41.8643 23.3694 43.3622C22.8143 43.8785 22.2572 44.3581 21.702 44.7989C20.0511 46.1102 18.4571 47.0224 17.0919 47.4398C15.8317 47.8234 14.797 47.7907 14.0174 47.3398C13.2378 46.8898 12.6908 46.0102 12.3939 44.7265C12.0725 43.3356 12.0653 41.4989 12.3756 39.4143C12.4797 38.7133 12.6174 37.9909 12.7857 37.2522C14.7918 37.7328 16.9591 38.0889 19.2285 38.3144L19.2287 38.3144ZM26.8684 46.5989C26.2459 46.104 25.6214 45.5653 25 44.9836C24.3786 45.5643 23.7541 46.104 23.1307 46.5989C21.6337 47.7877 20.1949 48.6704 18.847 49.2367C20.8153 49.7357 22.8766 50 25 50C27.1234 50 29.1837 49.7357 31.152 49.2367L31.152 49.2367C29.8041 48.6703 28.3653 47.7877 26.8684 46.5989ZM36.6262 35.0308C35.311 35.344 33.9202 35.6011 32.4724 35.8001L32.4725 35.7999C32.9613 35.0377 33.4368 34.2561 33.898 33.4561C34.3601 32.6572 34.7988 31.8544 35.2151 31.0505C35.7671 32.4034 36.2395 33.736 36.6262 35.0308ZM36.5419 28.3186L36.5419 28.3185L36.542 28.3183C37.4807 26.2419 38.2551 24.186 38.8428 22.2086C39.5673 22.4311 40.2611 22.6739 40.9213 22.9341C42.8814 23.7086 44.4692 24.632 45.5121 25.6065C46.4754 26.5055 46.9641 27.4177 46.9641 28.3187C46.9641 29.2196 46.4754 30.1318 45.5121 31.0307C44.4692 32.0052 42.8815 32.9287 40.9213 33.7032C40.2612 33.9633 39.5673 34.2062 38.8428 34.4286C38.2551 32.4511 37.4806 30.3961 36.5419 28.3186ZM36.6264 21.6065C36.2397 22.9013 35.7673 24.2339 35.2152 25.5868C34.799 24.7838 34.3602 23.9797 33.8979 23.1808C33.4368 22.3808 32.9613 21.5993 32.4726 20.8371C33.9204 21.0361 35.3111 21.2933 36.6264 21.6065ZM29.56 28.3184C29.56 30.8369 27.5184 32.8785 24.9999 32.8785C22.4814 32.8785 20.4397 30.8369 20.4397 28.3184C20.4397 25.7999 22.4814 23.7582 24.9999 23.7582C27.5184 23.7582 29.56 25.7999 29.56 28.3184Z" fill="#5ADAFD"/>
</svg>
